<?xml version="1.0" encoding="UTF-8" standalone="no"?>
<svg
   id="Layer_1"
   data-name="Layer 1"
   viewBox="0 0 340 47.999997"
   version="1.1"
   sodipodi:docname="BG360LOGO_HORIZONTAL_BLK.svg"
   width="227"
   height="32"
   inkscape:version="1.3.2 (091e20e, 2023-11-25, custom)"
   xmlns:inkscape="http://www.inkscape.org/namespaces/inkscape"
   xmlns:sodipodi="http://sodipodi.sourceforge.net/DTD/sodipodi-0.dtd"
   xmlns="http://www.w3.org/2000/svg"
   xmlns:svg="http://www.w3.org/2000/svg">
  <sodipodi:namedview
     id="namedview11"
     pagecolor="#ffffff"
     bordercolor="#000000"
     borderopacity="0.25"
     inkscape:showpageshadow="2"
     inkscape:pageopacity="0.0"
     inkscape:pagecheckerboard="0"
     inkscape:deskcolor="#d1d1d1"
     inkscape:zoom="2.7238005"
     inkscape:cx="198.98667"
     inkscape:cy="149.24001"
     inkscape:window-width="1920"
     inkscape:window-height="1009"
     inkscape:window-x="-8"
     inkscape:window-y="1072"
     inkscape:window-maximized="1"
     inkscape:current-layer="Layer_1" />
  <defs
     id="defs1">
    <style
       id="style1">.cls-1{fill:#231f20;}</style>
  </defs>
  <g
     id="g11"
     inkscape:export-filename="g11.svg"
     inkscape:export-xdpi="96"
     inkscape:export-ydpi="96"
     transform="translate(-19.090973,-129.96547)">
    <path
       class="cls-1"
       d="m 56.59,151.18 a 21,21 0 0 1 -0.47,6 15.17,15.17 0 0 1 -3.45,6 14.3,14.3 0 0 1 -10.44,3.87 H 29.3 v -12.24 a 14.3,14.3 0 0 1 3.86,-10.43 13.27,13.27 0 0 1 9.17,-3.9 H 56 l -6.2,6.22 h -7.28 a 7.05,7.05 0 0 0 -5,2.08 8.49,8.49 0 0 0 -2.09,6 v 6.07 h 7.06 a 7.56,7.56 0 0 0 5.74,-2 7.21,7.21 0 0 0 1.23,-1.66 H 39.37 l 5.94,-5.85 z m 6.94,-17.9 H 41.34 a 19,19 0 0 0 -19,19 v 22.19 H 44.5 a 19,19 0 0 0 19,-19 z"
       id="path1"
       inkscape:export-filename="path1.svg"
       inkscape:export-xdpi="96"
       inkscape:export-ydpi="96" />
    <path
       class="cls-1"
       d="m 345.75,150.14 h -4.12 a 1.24,1.24 0 0 0 -1.25,1.24 v 5.41 a 1.26,1.26 0 0 0 1.25,1.25 h 4.12 a 1.25,1.25 0 0 0 1.24,-1.25 v -5.41 a 1.24,1.24 0 0 0 -1.24,-1.24 z"
       id="path2" />
    <path
       class="cls-1"
       d="m 334.51,154.61 h -5.29 v 2.18 a 1.26,1.26 0 0 0 1.25,1.25 h 4 a 1.26,1.26 0 0 0 1.25,-1.25 v -0.94 a 1.25,1.25 0 0 0 -1.21,-1.24 z"
       id="path3" />
    <path
       class="cls-1"
       d="m 347.17,140 h -37.94 v 19.68 a 8.17,8.17 0 0 0 8.17,8.17 h 38.82 v -18.8 A 9,9 0 0 0 347.17,140 Z m -21.27,12 a 2.36,2.36 0 0 1 -1.13,2 2.4,2.4 0 0 1 1.13,2 v 0.84 a 2.39,2.39 0 0 1 -2.37,2.37 H 316.6 V 158 h 6.6 a 1.26,1.26 0 0 0 1.25,-1.25 V 156 a 1.24,1.24 0 0 0 -1.25,-1.24 h -5.32 v -1.29 h 5.32 a 1.24,1.24 0 0 0 1.25,-1.24 v -0.82 a 1.24,1.24 0 0 0 -1.25,-1.24 h -6.59 v -1.29 h 6.92 a 2.41,2.41 0 0 1 2.37,2.39 z m 11.31,4.87 a 2.4,2.4 0 0 1 -2.38,2.37 h -4.69 a 2.4,2.4 0 0 1 -2.37,-2.37 v -5.7 a 2.43,2.43 0 0 1 2.37,-2.39 h 6.47 v 1.29 h -6.14 a 1.25,1.25 0 0 0 -1.25,1.24 v 1.94 h 5.61 a 2.4,2.4 0 0 1 2.38,2.38 z m 11.23,0 a 2.41,2.41 0 0 1 -2.37,2.37 h -4.77 a 2.41,2.41 0 0 1 -2.37,-2.37 v -5.7 a 2.45,2.45 0 0 1 2.37,-2.39 h 4.77 a 2.39,2.39 0 0 1 2.37,2.39 z"
       id="path4" />
    <path
       class="cls-1"
       d="m 100.19,151.45 a 5.81,5.81 0 0 0 0.72,-2.83 v -2.9 a 5.69,5.69 0 0 0 -0.5,-2.37 6.13,6.13 0 0 0 -1.33,-1.91 6.5,6.5 0 0 0 -2,-1.29 5.76,5.76 0 0 0 -2.31,-0.48 h -19.4 v 27.85 h 19.45 a 5.82,5.82 0 0 0 2.39,-0.5 6.22,6.22 0 0 0 1.93,-1.33 6.53,6.53 0 0 0 1.29,-1.93 5.63,5.63 0 0 0 0.48,-2.29 v -2.9 a 5.66,5.66 0 0 0 -0.74,-2.85 6.34,6.34 0 0 0 -1.93,-2.12 6.09,6.09 0 0 0 1.95,-2.15 z m -5.37,9.23 a 1.65,1.65 0 0 1 -0.49,1.21 1.68,1.68 0 0 1 -1.22,0.5 H 81.42 v -6.25 h 11.69 a 1.72,1.72 0 0 1 1.71,1.71 z m 0,-11.38 a 1.7,1.7 0 0 1 -0.49,1.23 1.63,1.63 0 0 1 -1.22,0.52 H 81.42 v -6.29 h 11.69 a 1.59,1.59 0 0 1 1,0.3 1.57,1.57 0 0 1 0.49,0.76 3.5,3.5 0 0 1 0.16,1 c 0,0.37 0,0.73 0,1.08 z"
       id="path5" />
    <rect
       class="cls-1"
       x="107.28"
       y="139.67"
       width="6.0500002"
       height="27.85"
       id="rect5" />
    <path
       class="cls-1"
       d="m 143.81,141.44 a 6.5,6.5 0 0 0 -1.95,-1.29 5.76,5.76 0 0 0 -2.31,-0.48 h -13.8 a 5.69,5.69 0 0 0 -2.37,0.5 6.25,6.25 0 0 0 -1.91,1.33 6.53,6.53 0 0 0 -1.29,1.93 5.63,5.63 0 0 0 -0.48,2.29 v 15.75 a 5.69,5.69 0 0 0 0.5,2.37 6.13,6.13 0 0 0 1.33,1.91 6.53,6.53 0 0 0 1.93,1.29 5.63,5.63 0 0 0 2.29,0.48 h 13.8 a 5.82,5.82 0 0 0 2.39,-0.5 6.1,6.1 0 0 0 1.93,-1.33 6.53,6.53 0 0 0 1.29,-1.93 5.63,5.63 0 0 0 0.48,-2.29 v -15.75 a 5.54,5.54 0 0 0 -0.5,-2.37 6.13,6.13 0 0 0 -1.33,-1.91 z m -4.22,19.24 a 1.76,1.76 0 0 1 -1.75,1.75 h -10.38 a 1.61,1.61 0 0 1 -1.19,-0.52 1.66,1.66 0 0 1 -0.52,-1.23 v -14.17 a 1.78,1.78 0 0 1 1.71,-1.75 h 10.38 a 1.72,1.72 0 0 1 1.24,0.52 1.69,1.69 0 0 1 0.51,1.23 z"
       id="path6" />
    <path
       class="cls-1"
       d="m 205.59,156.72 a 6.52,6.52 0 0 0 2.09,-1.34 5.57,5.57 0 0 0 1.33,-1.93 5.74,5.74 0 0 0 0.46,-2.28 v -5.45 a 5.69,5.69 0 0 0 -0.5,-2.37 6.13,6.13 0 0 0 -1.33,-1.91 6.53,6.53 0 0 0 -1.93,-1.29 5.63,5.63 0 0 0 -2.29,-0.48 h -19.49 v 27.85 H 190 v -10.31 h 6.25 l 7,10.31 h 6.57 l -7,-10.31 a 7.26,7.26 0 0 0 2.77,-0.49 z M 190,152.12 v -7.36 h 11.7 a 1.63,1.63 0 0 1 1.21,0.52 1.68,1.68 0 0 1 0.5,1.23 v 3.86 a 1.71,1.71 0 0 1 -0.5,1.24 1.62,1.62 0 0 1 -1.21,0.51 z"
       id="path7" />
    <path
       class="cls-1"
       d="m 216.2,143.52 v 20.15 a 3.85,3.85 0 0 0 3.85,3.85 h 19.38 v -5.09 h -17.14 v -6.53 h 14.08 v -5.09 h -14.08 v -6.05 h 17.14 v -5.09 h -19.38 a 3.85,3.85 0 0 0 -3.85,3.85 z"
       id="path8" />
    <path
       class="cls-1"
       d="m 245.81,143.52 v 20.15 a 3.85,3.85 0 0 0 3.85,3.85 H 269 v -5.09 H 251.9 V 155.9 H 266 v -5.09 h -14.1 v -6.05 H 269 v -5.09 h -19.34 a 3.85,3.85 0 0 0 -3.85,3.85 z"
       id="path9" />
    <path
       class="cls-1"
       d="m 295.31,139.67 v 20.09 l -11.44,-18.28 a 3.84,3.84 0 0 0 -3.26,-1.81 h -5.19 v 27.85 h 6 V 147.43 L 294,167.52 h 7.32 v -27.85 z"
       id="path10" />
    <path
       class="cls-1"
       d="m 177.55,151.41 h -13.12 v 5.1 h 7 v 5.93 h -11.62 a 1.69,1.69 0 0 1 -1.71,-1.71 v -14.25 a 1.61,1.61 0 0 1 0.5,-1.21 1.65,1.65 0 0 1 1.21,-0.5 h 17.64 v 0 0 -5.07 H 158.1 a 5.84,5.84 0 0 0 -2.39,0.49 6.3,6.3 0 0 0 -1.93,1.34 6.37,6.37 0 0 0 -1.29,2 5.75,5.75 0 0 0 -0.48,2.3 v 15.72 a 5.61,5.61 0 0 0 0.5,2.36 6.18,6.18 0 0 0 1.35,1.92 6.76,6.76 0 0 0 1.95,1.29 5.63,5.63 0 0 0 2.29,0.48 h 19.45 z"
       id="path11" />
  </g>
</svg>
