<svg id="Layer_1" data-name="Layer 1" xmlns="http://www.w3.org/2000/svg" viewBox="0 0 397.97 298.48"><defs><style>.cls-1{fill:#fff;}</style></defs><path class="cls-1" d="M55.33,165.87a21,21,0,0,1-.47,6,15.33,15.33,0,0,1-3.45,6A14.33,14.33,0,0,1,41,181.77H28V169.5a14.3,14.3,0,0,1,3.86-10.43,13.27,13.27,0,0,1,9.17-3.9h13.7l-6.23,6.23H41.26a7.1,7.1,0,0,0-5,2.08,8.5,8.5,0,0,0-2.09,6v6.07h7.06a7.6,7.6,0,0,0,5.74-2,7,7,0,0,0,1.23-1.66H38.11L44.05,166ZM62.27,148H40.08a19,19,0,0,0-19,19v22.18H43.24a19,19,0,0,0,19-19Z"/><path class="cls-1" d="M344.49,164.83h-4.12a1.24,1.24,0,0,0-1.25,1.24v5.41a1.25,1.25,0,0,0,1.25,1.25h4.12a1.25,1.25,0,0,0,1.24-1.25v-5.41A1.24,1.24,0,0,0,344.49,164.83Z"/><path class="cls-1" d="M333.25,169.3H328v2.18a1.26,1.26,0,0,0,1.25,1.25h4a1.26,1.26,0,0,0,1.25-1.25v-.94A1.25,1.25,0,0,0,333.25,169.3Z"/><path class="cls-1" d="M345.91,154.73H308v19.68a8.17,8.17,0,0,0,8.17,8.17H355v-18.8A9,9,0,0,0,345.91,154.73Zm-21.27,12a2.37,2.37,0,0,1-1.13,2,2.4,2.4,0,0,1,1.13,2v.84a2.39,2.39,0,0,1-2.37,2.37h-6.93v-1.27h6.6a1.25,1.25,0,0,0,1.25-1.25v-.82a1.24,1.24,0,0,0-1.25-1.24h-5.32v-1.29h5.32a1.24,1.24,0,0,0,1.25-1.24v-.82a1.24,1.24,0,0,0-1.25-1.24h-6.59v-1.28h6.92a2.4,2.4,0,0,1,2.37,2.39ZM336,171.63a2.4,2.4,0,0,1-2.38,2.37h-4.69a2.4,2.4,0,0,1-2.37-2.37v-5.69a2.43,2.43,0,0,1,2.37-2.39h6.47v1.28h-6.14a1.25,1.25,0,0,0-1.25,1.24V168h5.61a2.4,2.4,0,0,1,2.38,2.38Zm11.23,0a2.41,2.41,0,0,1-2.37,2.37H340a2.41,2.41,0,0,1-2.37-2.37v-5.69a2.44,2.44,0,0,1,2.37-2.39h4.77a2.38,2.38,0,0,1,2.37,2.39Z"/><path class="cls-1" d="M98.93,166.14a5.8,5.8,0,0,0,.72-2.82v-2.91a5.69,5.69,0,0,0-.5-2.37,6.25,6.25,0,0,0-1.33-1.91,6.5,6.5,0,0,0-1.95-1.29,5.76,5.76,0,0,0-2.31-.48H74.11v27.85H93.56a5.85,5.85,0,0,0,2.39-.5,6.22,6.22,0,0,0,1.93-1.33,6.53,6.53,0,0,0,1.29-1.93,5.63,5.63,0,0,0,.48-2.29v-2.9a5.71,5.71,0,0,0-.74-2.85A6.34,6.34,0,0,0,97,168.29,6,6,0,0,0,98.93,166.14Zm-5.37,9.23a1.62,1.62,0,0,1-.5,1.21,1.65,1.65,0,0,1-1.21.5H80.15v-6.25h11.7a1.63,1.63,0,0,1,1.21.52,1.64,1.64,0,0,1,.5,1.19Zm0-11.38a1.67,1.67,0,0,1-.5,1.23,1.59,1.59,0,0,1-1.21.52H80.15v-6.29h11.7a1.6,1.6,0,0,1,1,.3,1.52,1.52,0,0,1,.5.76,3.5,3.5,0,0,1,.16,1c0,.38,0,.73,0,1.08Z"/><rect class="cls-1" x="106.02" y="154.36" width="6.05" height="27.85"/><path class="cls-1" d="M142.55,156.13a6.5,6.5,0,0,0-2-1.29,5.76,5.76,0,0,0-2.31-.48h-13.8a5.69,5.69,0,0,0-2.37.5,6.3,6.3,0,0,0-1.91,1.33,6.53,6.53,0,0,0-1.29,1.93,5.63,5.63,0,0,0-.48,2.29v15.75a5.69,5.69,0,0,0,.5,2.37,6.26,6.26,0,0,0,3.26,3.2,5.63,5.63,0,0,0,2.29.48h13.8a5.66,5.66,0,0,0,2.39-.5,6.1,6.1,0,0,0,1.93-1.33,6.53,6.53,0,0,0,1.29-1.93,5.63,5.63,0,0,0,.48-2.29V160.41a5.54,5.54,0,0,0-.5-2.37A6.25,6.25,0,0,0,142.55,156.13Zm-4.22,19.24a1.78,1.78,0,0,1-1.75,1.75H126.2a1.65,1.65,0,0,1-1.2-.52,1.69,1.69,0,0,1-.51-1.23V161.21A1.71,1.71,0,0,1,125,160a1.69,1.69,0,0,1,1.2-.52h10.38a1.78,1.78,0,0,1,1.75,1.76Z"/><path class="cls-1" d="M204.33,171.41a6.67,6.67,0,0,0,2.09-1.33,5.66,5.66,0,0,0,1.33-1.93,6,6,0,0,0,.46-2.29v-5.45a5.69,5.69,0,0,0-.5-2.37,6.25,6.25,0,0,0-1.33-1.91,6.53,6.53,0,0,0-1.93-1.29,5.63,5.63,0,0,0-2.29-.48H182.67v27.85h6.08v-10.3H195l7,10.3h6.57l-7-10.3A7.26,7.26,0,0,0,204.33,171.41Zm-15.58-4.6v-7.36h11.7a1.63,1.63,0,0,1,1.21.52,1.71,1.71,0,0,1,.5,1.24v3.85a1.71,1.71,0,0,1-.5,1.24,1.62,1.62,0,0,1-1.21.51Z"/><path class="cls-1" d="M214.94,158.21v20.15a3.85,3.85,0,0,0,3.85,3.85h19.38v-5.09H221v-6.53h14.08V165.5H221v-6.05h17.14v-5.09H218.79A3.85,3.85,0,0,0,214.94,158.21Z"/><path class="cls-1" d="M244.55,158.21v20.15a3.85,3.85,0,0,0,3.85,3.85h19.38v-5.09H250.63v-6.53h14.09V165.5H250.63v-6.05h17.15v-5.09H248.4A3.85,3.85,0,0,0,244.55,158.21Z"/><path class="cls-1" d="M294.05,154.36v20.09l-11.44-18.28a3.86,3.86,0,0,0-3.26-1.81h-5.19v27.85h6V162.12l12.58,20.09h7.32V154.36Z"/><path class="cls-1" d="M176.29,166.1H163.17v5.1h7v5.93H158.55a1.68,1.68,0,0,1-1.22-.5,1.65,1.65,0,0,1-.49-1.21V161.17a1.65,1.65,0,0,1,.49-1.21,1.68,1.68,0,0,1,1.22-.5h17.64v0h0v-5.07H156.84a5.82,5.82,0,0,0-2.39.5,6.1,6.1,0,0,0-1.93,1.33,6.5,6.5,0,0,0-1.29,2,5.75,5.75,0,0,0-.48,2.3v15.72a5.69,5.69,0,0,0,.5,2.37,6,6,0,0,0,1.35,1.91,6.76,6.76,0,0,0,2,1.29,5.63,5.63,0,0,0,2.29.48l19.45,0Z"/></svg>