<?xml version="1.0" encoding="utf-8"?>
<!-- Generator: Adobe Illustrator 25.2.1, SVG Export Plug-In . SVG Version: 6.00 Build 0)  -->
<svg version="1.1" id="Layer_1" xmlns="http://www.w3.org/2000/svg" xmlns:xlink="http://www.w3.org/1999/xlink" x="0px" y="0px"
	 viewBox="0 0 279.76 63.28" style="enable-background:new 0 0 279.76 63.28;" xml:space="preserve">
<style type="text/css">
	.st0{fill:#7A923B;}
	.st1{fill:#FFFFFF;}
	.st2{fill:#A9A8A9;}
	.st3{fill:#333144;}
	.st4{enable-background:new    ;}
</style>
<g id="Group_12">
	<path class="st0" d="M51.23,8.94H28.03c-12.18,0-22.05,9.87-22.05,22.05v23.19h23.28c12.13,0,21.96-9.83,21.96-21.96V8.94z"/>
	<path class="st1" d="M43.64,28.57c0,0,0.26,4.34-0.52,6.65c-0.78,2.31-1.9,4.68-3.79,6.57c-3.14,3.14-7.53,4.34-11.46,4.24H13.65
		V32.56c0.01-4.16,1.1-8.32,4.24-11.46c2.79-2.79,6.42-4.22,10.08-4.28l15.04-0.01l-6.84,6.84h-8c-1.97,0.02-3.95,0.78-5.45,2.28
		c-1.79,1.79-2.23,4.28-2.3,6.58v6.67h7.76c2.31,0.01,4.5-0.43,6.3-2.22c0.55-0.55,1-1.16,1.35-1.82l-11.12-0.01l6.52-6.43
		L43.64,28.57z"/>
</g>
<g id="Group_14" transform="translate(231.824 6.26)">
	<g>
		<path class="st2" d="M33.39,16.59h-3.1c-0.52,0-0.94,0.42-0.94,0.93v4.07c0,0.52,0.43,0.94,0.94,0.94h3.1
			c0.51,0,0.93-0.43,0.93-0.94v-4.07C34.33,17.01,33.9,16.59,33.39,16.59z"/>
		<path class="st2" d="M24.93,19.95h-3.98v1.64c0,0.52,0.43,0.94,0.94,0.94h3.03c0.52,0,0.94-0.43,0.94-0.94v-0.71
			C25.87,20.37,25.45,19.95,24.93,19.95z"/>
		<path class="st2" d="M34.47,8.99H5.91V23.8c0,3.4,2.75,6.15,6.15,6.15h29.21V15.8C41.27,12.04,38.23,8.99,34.47,8.99z
			 M18.46,18.04c0,0.63-0.34,1.2-0.85,1.52c0.51,0.31,0.85,0.88,0.85,1.52v0.63c0,0.97-0.8,1.79-1.79,1.79h-5.21v-0.96h4.97
			c0.52,0,0.94-0.43,0.94-0.94v-0.62c0-0.51-0.42-0.93-0.94-0.93h-4v-0.97h4c0.52,0,0.94-0.42,0.94-0.93v-0.62
			c0-0.52-0.43-0.93-0.94-0.93h-4.96v-0.97h5.2c0.97,0,1.79,0.81,1.79,1.8V18.04z M26.96,21.71c0,0.97-0.81,1.79-1.79,1.79h-3.53
			c-0.98,0-1.79-0.83-1.79-1.79v-4.28c0-0.97,0.83-1.8,1.79-1.8h4.87v0.97H21.9c-0.52,0-0.94,0.42-0.94,0.93v1.46h4.23
			c0.98,0,1.79,0.81,1.79,1.79V21.71z M35.42,21.71c0,0.98-0.83,1.78-1.79,1.79h-3.59c-0.97,0-1.76-0.8-1.79-1.79v-4.28
			c0-0.98,0.83-1.78,1.79-1.8h3.59c0.99,0,1.79,0.81,1.79,1.8V21.71z"/>
	</g>
</g>
<g id="Group_16" transform="translate(55.648 5.976)">
	<g id="Group_15" transform="translate(0 0.005)">
		<path id="Path_17" class="st3" d="M24.57,17.84c0.36-0.65,0.54-1.38,0.54-2.13v-2.19c0-0.61-0.12-1.22-0.37-1.78
			c-0.24-0.54-0.58-1.03-1.01-1.44c-0.42-0.41-0.92-0.74-1.47-0.97c-0.55-0.24-1.14-0.36-1.74-0.36H5.87v20.98h14.66
			c0.62,0,1.23-0.12,1.8-0.38c0.54-0.24,1.04-0.58,1.45-1c0.41-0.42,0.74-0.91,0.97-1.45c0.24-0.54,0.36-1.13,0.36-1.72v-2.19
			c0.01-0.75-0.18-1.49-0.55-2.14c-0.36-0.64-0.85-1.18-1.45-1.6C23.72,19.05,24.23,18.49,24.57,17.84z M20.53,24.8
			c0.01,0.71-0.56,1.28-1.27,1.29c-0.01,0-0.01,0-0.02,0h-8.81v-4.71h8.81c0.35,0,0.68,0.14,0.92,0.39c0.24,0.24,0.37,0.56,0.37,0.9
			L20.53,24.8z M20.53,16.22c0,0.35-0.13,0.68-0.37,0.93c-0.24,0.25-0.57,0.39-0.92,0.39h-8.81v-4.73h8.81
			c0.28-0.02,0.55,0.06,0.78,0.22c0.18,0.15,0.31,0.35,0.38,0.57c0.07,0.25,0.11,0.51,0.12,0.76c0.01,0.28,0.02,0.55,0.02,0.81
			V16.22z"/>
	</g>
	<rect id="Rectangle_12" x="29.92" y="8.98" class="st3" width="4.55" height="20.98"/>
	<path id="Path_18" class="st3" d="M57.43,10.31c-0.43-0.41-0.92-0.74-1.47-0.97c-0.55-0.24-1.14-0.36-1.74-0.36h-10.4
		c-0.61-0.01-1.22,0.12-1.78,0.37c-0.54,0.24-1.03,0.58-1.44,1.01c-0.41,0.42-0.74,0.91-0.97,1.45c-0.24,0.54-0.36,1.13-0.36,1.72
		V25.4c-0.01,0.61,0.12,1.22,0.38,1.78c0.24,0.54,0.58,1.03,1,1.44c0.42,0.41,0.91,0.74,1.45,0.97c0.54,0.24,1.13,0.36,1.72,0.36
		h10.4c0.62,0,1.23-0.12,1.8-0.38c0.54-0.24,1.04-0.58,1.45-1c0.41-0.42,0.74-0.91,0.97-1.45c0.24-0.54,0.36-1.13,0.36-1.72V13.53
		c0.01-0.61-0.12-1.22-0.37-1.78C58.19,11.21,57.85,10.72,57.43,10.31z M54.26,24.8c0,0.73-0.59,1.31-1.32,1.32h-7.82
		c-0.34,0-0.67-0.14-0.9-0.39c-0.25-0.24-0.39-0.58-0.39-0.93V14.13c0-0.35,0.14-0.69,0.39-0.93c0.23-0.25,0.56-0.39,0.9-0.39h7.82
		c0.73,0.01,1.31,0.59,1.32,1.32V24.8z"/>
	<path id="Path_19" class="st3" d="M103.98,21.82c0.58-0.23,1.12-0.57,1.57-1.01c0.43-0.41,0.77-0.91,1-1.45
		c0.23-0.55,0.35-1.13,0.34-1.72v-4.1c0.01-0.61-0.12-1.22-0.38-1.78c-0.24-0.54-0.58-1.03-1-1.44c-0.42-0.41-0.91-0.74-1.45-0.97
		c-0.54-0.24-1.13-0.36-1.72-0.36H87.66v20.98h4.59v-7.76h4.71l5.27,7.76h4.94l-5.27-7.76C102.61,22.21,103.31,22.08,103.98,21.82z
		 M92.24,18.36v-5.54h8.81c0.35-0.01,0.68,0.14,0.91,0.39c0.25,0.25,0.38,0.58,0.38,0.93v2.91c0,0.35-0.13,0.68-0.38,0.93
		c-0.23,0.25-0.57,0.4-0.91,0.39L92.24,18.36z"/>
	<path id="Path_20" class="st3" d="M111.97,11.88v15.18c0,1.6,1.3,2.9,2.9,2.9l0,0h14.6v-3.84h-12.92v-4.92h10.61v-3.84h-10.61
		v-4.55h12.92V8.98h-14.6C113.27,8.98,111.97,10.28,111.97,11.88z"/>
	<path id="Path_21" class="st3" d="M134.27,11.88v15.18c0,1.6,1.3,2.9,2.9,2.9l0,0h14.6v-3.84h-12.91v-4.92h10.61v-3.84h-10.61
		v-4.55h12.92V8.98h-14.6C135.58,8.98,134.28,10.27,134.27,11.88C134.27,11.87,134.27,11.88,134.27,11.88z"/>
	<path id="Path_22" class="st3" d="M171.57,8.98v15.14l-8.62-13.77c-0.53-0.85-1.46-1.36-2.46-1.36h-3.91v20.98h4.56V14.82
		l9.47,15.14h5.51V8.98H171.57z"/>
	<path id="Path_23" class="st3" d="M82.86,17.82h-9.89v3.84h5.27l0.01,4.47h-8.76c-0.71,0.01-1.28-0.56-1.29-1.27
		c0-0.01,0-0.01,0-0.02V14.11c-0.01-0.7,0.56-1.28,1.26-1.29c0.01,0,0.02,0,0.02,0h13.29V12.8h0.02V8.97L68.2,8.98
		c-0.62,0-1.23,0.12-1.8,0.37c-0.54,0.24-1.04,0.58-1.45,1.01c-0.41,0.43-0.74,0.92-0.97,1.47c-0.24,0.55-0.36,1.14-0.36,1.74v11.84
		c-0.01,0.61,0.12,1.22,0.38,1.78c0.24,0.54,0.59,1.03,1.02,1.44c0.43,0.41,0.93,0.74,1.47,0.97c0.54,0.24,1.13,0.36,1.73,0.36
		l14.66-0.03L82.86,17.82z"/>
</g>
<g id="Group_17" transform="translate(55.646 30.931)">
	<g class="st4">
		<path class="st2" d="M12.15,16.48l0.52,0.74c-0.67,0.55-1.54,0.88-2.51,0.88c-2.18,0-3.86-1.66-3.86-3.8c0-2.14,1.69-3.8,3.86-3.8
			c0.93,0,1.75,0.29,2.42,0.81l-0.5,0.75c-0.57-0.4-1.16-0.69-1.93-0.69c-1.6,0-2.86,1.29-2.86,2.93c0,1.64,1.27,2.93,2.86,2.93
			C10.92,17.23,11.62,16.92,12.15,16.48z"/>
		<path class="st2" d="M17.46,10.39c0.36,0,0.63,0.27,0.63,0.63c0,0.35-0.27,0.62-0.63,0.62s-0.63-0.27-0.63-0.62
			C16.83,10.66,17.1,10.39,17.46,10.39z M16.98,12.53h0.96v5.44h-0.96V12.53z"/>
		<path class="st2" d="M23.59,14.48v3.49h-0.96v-5.44h0.96v0.89c0.4-0.55,0.97-1.02,1.69-1.02c0.18,0,0.37,0.04,0.51,0.11
			l-0.08,0.85c-0.18-0.06-0.37-0.1-0.56-0.1C24.53,13.26,23.95,13.79,23.59,14.48z"/>
		<path class="st2" d="M29.24,15.25c0-1.57,1.24-2.85,2.94-2.85c0.79,0,1.46,0.27,1.98,0.72l-0.5,0.75c-0.4-0.36-0.9-0.61-1.48-0.61
			c-1.11,0-1.97,0.89-1.97,1.99c0,1.1,0.86,1.99,1.97,1.99c0.59,0,1.12-0.26,1.52-0.66l0.56,0.7c-0.53,0.51-1.24,0.81-2.08,0.81
			C30.49,18.1,29.24,16.82,29.24,15.25z"/>
		<path class="st2" d="M42.27,12.53h0.96v5.44h-0.96v-0.83c-0.39,0.51-1,0.96-1.76,0.96c-1.29,0-2.19-0.91-2.19-2.22v-3.34h0.96
			v3.29c0,0.81,0.58,1.42,1.41,1.42c0.68,0,1.25-0.55,1.58-1.1V12.53z"/>
		<path class="st2" d="M47.92,10.31h0.96v7.66h-0.96V10.31z"/>
		<path class="st2" d="M57.88,13.24v-0.7h0.96v5.44h-0.96v-0.7c-0.49,0.54-1.16,0.83-1.92,0.83c-1.62,0-2.78-1.31-2.78-2.84
			s1.17-2.85,2.78-2.85C56.72,12.41,57.4,12.7,57.88,13.24z M57.88,16.17v-1.81c-0.32-0.65-0.98-1.09-1.76-1.09
			c-1.11,0-1.97,0.89-1.97,1.99c0,1.1,0.86,1.99,1.97,1.99C56.9,17.24,57.56,16.81,57.88,16.17z"/>
		<path class="st2" d="M64.36,14.48v3.49h-0.96v-5.44h0.96v0.89c0.4-0.55,0.97-1.02,1.69-1.02c0.18,0,0.37,0.04,0.51,0.11
			l-0.08,0.85c-0.18-0.06-0.37-0.1-0.56-0.1C65.3,13.26,64.73,13.79,64.36,14.48z"/>
		<path class="st2" d="M84.14,14.3c0,2.14-1.69,3.8-3.86,3.8s-3.86-1.66-3.86-3.8c0-2.14,1.69-3.8,3.86-3.8S84.14,12.16,84.14,14.3z
			 M83.14,14.3c0-1.64-1.27-2.93-2.86-2.93s-2.86,1.29-2.86,2.93c0,1.64,1.27,2.93,2.86,2.93S83.14,15.94,83.14,14.3z"/>
		<path class="st2" d="M89.32,14.48v3.49h-0.96v-5.44h0.96v0.89c0.4-0.55,0.97-1.02,1.69-1.02c0.18,0,0.37,0.04,0.51,0.11
			l-0.08,0.85c-0.18-0.06-0.37-0.1-0.56-0.1C90.26,13.26,89.69,13.79,89.32,14.48z"/>
		<path class="st2" d="M99.67,17.27c-0.49,0.54-1.16,0.83-1.92,0.83c-1.62,0-2.78-1.31-2.78-2.84s1.17-2.85,2.78-2.85
			c0.76,0,1.43,0.29,1.92,0.83v-0.7h0.96v5.26c0,1.56-0.97,2.61-2.75,2.61c-1.03,0-1.88-0.44-2.46-1.09l0.63-0.62
			c0.45,0.51,1.08,0.89,1.83,0.89c1.08,0,1.8-0.65,1.8-1.72V17.27z M99.67,16.17v-1.81c-0.32-0.65-0.98-1.09-1.76-1.09
			c-1.11,0-1.97,0.89-1.97,1.99c0,1.1,0.86,1.99,1.97,1.99C98.69,17.24,99.35,16.81,99.67,16.17z"/>
		<path class="st2" d="M109.52,13.24v-0.7h0.96v5.44h-0.96v-0.7c-0.49,0.54-1.16,0.83-1.92,0.83c-1.62,0-2.78-1.31-2.78-2.84
			s1.17-2.85,2.78-2.85C108.36,12.41,109.03,12.7,109.52,13.24z M109.52,16.17v-1.81c-0.32-0.65-0.98-1.09-1.76-1.09
			c-1.11,0-1.97,0.89-1.97,1.99c0,1.1,0.86,1.99,1.97,1.99C108.54,17.24,109.2,16.81,109.52,16.17z"/>
		<path class="st2" d="M116,17.97h-0.96v-5.44H116v0.83c0.39-0.51,1-0.96,1.76-0.96c1.29,0,2.19,0.91,2.19,2.22v3.34h-0.96v-3.29
			c0-0.81-0.58-1.42-1.41-1.42c-0.68,0-1.25,0.55-1.58,1.1V17.97z"/>
		<path class="st2" d="M125.02,10.39c0.36,0,0.63,0.27,0.63,0.63c0,0.35-0.27,0.62-0.63,0.62c-0.36,0-0.63-0.27-0.63-0.62
			C124.39,10.66,124.66,10.39,125.02,10.39z M124.54,12.53h0.96v5.44h-0.96V12.53z"/>
		<path class="st2" d="M129.81,15.25c0-1.57,1.24-2.85,2.94-2.85c0.79,0,1.46,0.27,1.98,0.72l-0.5,0.75
			c-0.4-0.36-0.9-0.61-1.48-0.61c-1.11,0-1.97,0.89-1.97,1.99c0,1.1,0.86,1.99,1.97,1.99c0.59,0,1.12-0.26,1.52-0.66l0.56,0.7
			c-0.53,0.51-1.24,0.81-2.08,0.81C131.05,18.1,129.81,16.82,129.81,15.25z"/>
		<path class="st2" d="M145.54,16.25c0.48,0.54,1.17,0.98,1.92,0.98c0.96,0,1.63-0.48,1.63-1.21c0-0.66-0.46-1.16-1.75-1.43
			c-1.51-0.31-2.27-1.05-2.27-2.1c0-1.18,0.96-1.99,2.33-1.99c0.99,0,1.75,0.37,2.31,0.93l-0.59,0.71c-0.47-0.44-1-0.77-1.67-0.77
			c-0.81,0-1.38,0.43-1.38,1.05c0,0.67,0.55,1.1,1.68,1.35c1.67,0.38,2.34,1.12,2.34,2.24c0,1.22-0.99,2.09-2.58,2.09
			c-1.02,0-2-0.46-2.59-1.18L145.54,16.25z"/>
		<path class="st2" d="M159.85,15.25c0,1.57-1.24,2.84-2.94,2.84c-1.7,0-2.94-1.28-2.94-2.84s1.24-2.85,2.94-2.85
			C158.6,12.41,159.85,13.68,159.85,15.25z M158.88,15.25c0-1.1-0.86-1.99-1.97-1.99c-1.11,0-1.97,0.89-1.97,1.99
			c0,1.1,0.86,1.99,1.97,1.99C158.02,17.24,158.88,16.35,158.88,15.25z"/>
		<path class="st2" d="M164.16,10.31h0.96v7.66h-0.96V10.31z"/>
		<path class="st2" d="M173.66,12.53h0.96v5.44h-0.96v-0.83c-0.39,0.51-1,0.96-1.76,0.96c-1.29,0-2.19-0.91-2.19-2.22v-3.34h0.96
			v3.29c0,0.81,0.58,1.42,1.41,1.42c0.68,0,1.25-0.55,1.58-1.1V12.53z"/>
		<path class="st2" d="M180.59,16.23c0,0.69,0.29,1.02,1.06,1.02c0.15,0,0.37-0.01,0.49-0.03v0.82c-0.13,0.03-0.37,0.04-0.57,0.04
			c-1.32,0-1.94-0.59-1.94-1.85v-2.87h-0.98v-0.84h0.98v-1.49l0.96-0.08v1.58h1.49v0.84h-1.49V16.23z"/>
		<path class="st2" d="M186.83,10.39c0.36,0,0.63,0.27,0.63,0.63c0,0.35-0.27,0.62-0.63,0.62c-0.36,0-0.63-0.27-0.63-0.62
			C186.2,10.66,186.48,10.39,186.83,10.39z M186.36,12.53h0.96v5.44h-0.96V12.53z"/>
		<path class="st2" d="M197.51,15.25c0,1.57-1.24,2.84-2.94,2.84s-2.94-1.28-2.94-2.84s1.24-2.85,2.94-2.85
			S197.51,13.68,197.51,15.25z M196.54,15.25c0-1.1-0.86-1.99-1.97-1.99c-1.11,0-1.97,0.89-1.97,1.99c0,1.1,0.86,1.99,1.97,1.99
			C195.68,17.24,196.54,16.35,196.54,15.25z"/>
		<path class="st2" d="M202.65,17.97h-0.96v-5.44h0.96v0.83c0.39-0.51,1-0.96,1.76-0.96c1.29,0,2.19,0.91,2.19,2.22v3.34h-0.96
			v-3.29c0-0.81-0.58-1.42-1.41-1.42c-0.68,0-1.25,0.55-1.58,1.1V17.97z"/>
		<path class="st2" d="M211.22,16.55c0.35,0.43,0.89,0.72,1.51,0.72c0.69,0,1.11-0.32,1.11-0.8c0-0.46-0.36-0.76-1.21-0.92
			c-1.2-0.23-1.77-0.79-1.77-1.64c0-0.86,0.74-1.51,1.87-1.51c0.74,0,1.38,0.3,1.83,0.72l-0.51,0.65c-0.38-0.33-0.77-0.55-1.24-0.55
			c-0.56,0-0.99,0.29-0.99,0.7c0,0.39,0.37,0.71,1.12,0.86c1.25,0.25,1.85,0.79,1.85,1.7c0,0.92-0.74,1.61-2,1.61
			c-0.89,0-1.65-0.35-2.12-0.9L211.22,16.55z"/>
	</g>
</g>
</svg>
