<?xml version="1.0" encoding="UTF-8" standalone="no"?>
<svg
   id="Layer_1"
   data-name="Layer 1"
   viewBox="0 0 340 44.999998"
   version="1.1"
   width="340"
   height="45"
   xmlns="http://www.w3.org/2000/svg"
   xmlns:svg="http://www.w3.org/2000/svg">
  <defs
     id="defs1">
    <style
       id="style1">.cls-1{fill:#fff;}</style>
  </defs>
  <g
     id="g11"
     transform="translate(-17.622436,-146.11936)"
     style="fill:#ffffff">
    <path
       class="cls-1"
       d="m 55.33,165.87 a 21,21 0 0 1 -0.47,6 15.33,15.33 0 0 1 -3.45,6 14.33,14.33 0 0 1 -10.41,3.9 H 28 V 169.5 a 14.3,14.3 0 0 1 3.86,-10.43 13.27,13.27 0 0 1 9.17,-3.9 h 13.7 l -6.23,6.23 h -7.24 a 7.1,7.1 0 0 0 -5,2.08 8.5,8.5 0 0 0 -2.09,6 v 6.07 h 7.06 a 7.6,7.6 0 0 0 5.74,-2 7,7 0 0 0 1.23,-1.66 H 38.11 L 44.05,166 Z M 62.27,148 H 40.08 a 19,19 0 0 0 -19,19 v 22.18 h 22.16 a 19,19 0 0 0 19,-19 z"
       id="path1"
       style="fill:#ffffff" />
    <path
       class="cls-1"
       d="m 344.49,164.83 h -4.12 a 1.24,1.24 0 0 0 -1.25,1.24 v 5.41 a 1.25,1.25 0 0 0 1.25,1.25 h 4.12 a 1.25,1.25 0 0 0 1.24,-1.25 v -5.41 a 1.24,1.24 0 0 0 -1.24,-1.24 z"
       id="path2"
       style="fill:#ffffff" />
    <path
       class="cls-1"
       d="M 333.25,169.3 H 328 v 2.18 a 1.26,1.26 0 0 0 1.25,1.25 h 4 a 1.26,1.26 0 0 0 1.25,-1.25 v -0.94 a 1.25,1.25 0 0 0 -1.25,-1.24 z"
       id="path3"
       style="fill:#ffffff" />
    <path
       class="cls-1"
       d="M 345.91,154.73 H 308 v 19.68 a 8.17,8.17 0 0 0 8.17,8.17 H 355 v -18.8 a 9,9 0 0 0 -9.09,-9.05 z m -21.27,12 a 2.37,2.37 0 0 1 -1.13,2 2.4,2.4 0 0 1 1.13,2 v 0.84 a 2.39,2.39 0 0 1 -2.37,2.37 h -6.93 v -1.27 h 6.6 a 1.25,1.25 0 0 0 1.25,-1.25 v -0.82 a 1.24,1.24 0 0 0 -1.25,-1.24 h -5.32 v -1.29 h 5.32 a 1.24,1.24 0 0 0 1.25,-1.24 v -0.82 a 1.24,1.24 0 0 0 -1.25,-1.24 h -6.59 v -1.28 h 6.92 a 2.4,2.4 0 0 1 2.37,2.39 z m 11.36,4.9 a 2.4,2.4 0 0 1 -2.38,2.37 h -4.69 a 2.4,2.4 0 0 1 -2.37,-2.37 v -5.69 a 2.43,2.43 0 0 1 2.37,-2.39 h 6.47 v 1.28 h -6.14 a 1.25,1.25 0 0 0 -1.25,1.24 V 168 h 5.61 a 2.4,2.4 0 0 1 2.38,2.38 z m 11.23,0 A 2.41,2.41 0 0 1 344.86,174 H 340 a 2.41,2.41 0 0 1 -2.37,-2.37 v -5.69 a 2.44,2.44 0 0 1 2.37,-2.39 h 4.77 a 2.38,2.38 0 0 1 2.37,2.39 z"
       id="path4"
       style="fill:#ffffff" />
    <path
       class="cls-1"
       d="m 98.93,166.14 a 5.8,5.8 0 0 0 0.72,-2.82 v -2.91 a 5.69,5.69 0 0 0 -0.5,-2.37 6.25,6.25 0 0 0 -1.33,-1.91 6.5,6.5 0 0 0 -1.95,-1.29 5.76,5.76 0 0 0 -2.31,-0.48 H 74.11 v 27.85 h 19.45 a 5.85,5.85 0 0 0 2.39,-0.5 6.22,6.22 0 0 0 1.93,-1.33 6.53,6.53 0 0 0 1.29,-1.93 5.63,5.63 0 0 0 0.48,-2.29 v -2.9 a 5.71,5.71 0 0 0 -0.74,-2.85 6.34,6.34 0 0 0 -1.91,-2.12 6,6 0 0 0 1.93,-2.15 z m -5.37,9.23 a 1.62,1.62 0 0 1 -0.5,1.21 1.65,1.65 0 0 1 -1.21,0.5 h -11.7 v -6.25 h 11.7 a 1.63,1.63 0 0 1 1.21,0.52 1.64,1.64 0 0 1 0.5,1.19 z m 0,-11.38 a 1.67,1.67 0 0 1 -0.5,1.23 1.59,1.59 0 0 1 -1.21,0.52 h -11.7 v -6.29 h 11.7 a 1.6,1.6 0 0 1 1,0.3 1.52,1.52 0 0 1 0.5,0.76 3.5,3.5 0 0 1 0.16,1 c 0,0.38 0,0.73 0,1.08 z"
       id="path5"
       style="fill:#ffffff" />
    <rect
       class="cls-1"
       x="106.02"
       y="154.36"
       width="6.0500002"
       height="27.85"
       id="rect5"
       style="fill:#ffffff" />
    <path
       class="cls-1"
       d="m 142.55,156.13 a 6.5,6.5 0 0 0 -2,-1.29 5.76,5.76 0 0 0 -2.31,-0.48 h -13.8 a 5.69,5.69 0 0 0 -2.37,0.5 6.3,6.3 0 0 0 -1.91,1.33 6.53,6.53 0 0 0 -1.29,1.93 5.63,5.63 0 0 0 -0.48,2.29 v 15.75 a 5.69,5.69 0 0 0 0.5,2.37 6.26,6.26 0 0 0 3.26,3.2 5.63,5.63 0 0 0 2.29,0.48 h 13.8 a 5.66,5.66 0 0 0 2.39,-0.5 6.1,6.1 0 0 0 1.93,-1.33 6.53,6.53 0 0 0 1.29,-1.93 5.63,5.63 0 0 0 0.48,-2.29 v -15.75 a 5.54,5.54 0 0 0 -0.5,-2.37 6.25,6.25 0 0 0 -1.28,-1.91 z m -4.22,19.24 a 1.78,1.78 0 0 1 -1.75,1.75 H 126.2 a 1.65,1.65 0 0 1 -1.2,-0.52 1.69,1.69 0 0 1 -0.51,-1.23 V 161.21 A 1.71,1.71 0 0 1 125,160 a 1.69,1.69 0 0 1 1.2,-0.52 h 10.38 a 1.78,1.78 0 0 1 1.75,1.76 z"
       id="path6"
       style="fill:#ffffff" />
    <path
       class="cls-1"
       d="m 204.33,171.41 a 6.67,6.67 0 0 0 2.09,-1.33 5.66,5.66 0 0 0 1.33,-1.93 6,6 0 0 0 0.46,-2.29 v -5.45 a 5.69,5.69 0 0 0 -0.5,-2.37 6.25,6.25 0 0 0 -1.33,-1.91 6.53,6.53 0 0 0 -1.93,-1.29 5.63,5.63 0 0 0 -2.29,-0.48 h -19.49 v 27.85 h 6.08 v -10.3 H 195 l 7,10.3 h 6.57 l -7,-10.3 a 7.26,7.26 0 0 0 2.76,-0.5 z m -15.58,-4.6 v -7.36 h 11.7 a 1.63,1.63 0 0 1 1.21,0.52 1.71,1.71 0 0 1 0.5,1.24 v 3.85 a 1.71,1.71 0 0 1 -0.5,1.24 1.62,1.62 0 0 1 -1.21,0.51 z"
       id="path7"
       style="fill:#ffffff" />
    <path
       class="cls-1"
       d="m 214.94,158.21 v 20.15 a 3.85,3.85 0 0 0 3.85,3.85 h 19.38 v -5.09 H 221 v -6.53 h 14.08 V 165.5 H 221 v -6.05 h 17.14 v -5.09 h -19.35 a 3.85,3.85 0 0 0 -3.85,3.85 z"
       id="path8"
       style="fill:#ffffff" />
    <path
       class="cls-1"
       d="m 244.55,158.21 v 20.15 a 3.85,3.85 0 0 0 3.85,3.85 h 19.38 v -5.09 h -17.15 v -6.53 h 14.09 v -5.09 h -14.09 v -6.05 h 17.15 v -5.09 H 248.4 a 3.85,3.85 0 0 0 -3.85,3.85 z"
       id="path9"
       style="fill:#ffffff" />
    <path
       class="cls-1"
       d="m 294.05,154.36 v 20.09 l -11.44,-18.28 a 3.86,3.86 0 0 0 -3.26,-1.81 h -5.19 v 27.85 h 6 v -20.09 l 12.58,20.09 h 7.32 v -27.85 z"
       id="path10"
       style="fill:#ffffff" />
    <path
       class="cls-1"
       d="m 176.29,166.1 h -13.12 v 5.1 h 7 v 5.93 h -11.62 a 1.68,1.68 0 0 1 -1.22,-0.5 1.65,1.65 0 0 1 -0.49,-1.21 v -14.25 a 1.65,1.65 0 0 1 0.49,-1.21 1.68,1.68 0 0 1 1.22,-0.5 h 17.64 v 0 0 -5.07 h -19.35 a 5.82,5.82 0 0 0 -2.39,0.5 6.1,6.1 0 0 0 -1.93,1.33 6.5,6.5 0 0 0 -1.29,2 5.75,5.75 0 0 0 -0.48,2.3 v 15.72 a 5.69,5.69 0 0 0 0.5,2.37 6,6 0 0 0 1.35,1.91 6.76,6.76 0 0 0 2,1.29 5.63,5.63 0 0 0 2.29,0.48 h 19.45 z"
       id="path11"
       style="fill:#ffffff" />
  </g>
</svg>
